inDegrees=no
num_controls=7
num_derivatives=13
num_iterations=155
num_multipliers=7
num_parameters=0
num_slacks=7
num_states=26
objective=0.455725
objective_accelerations=0.027678
objective_balance=0.001415
objective_effort=0.012464
objective_height=0.408928
objective_ligament=0.005241
solver_duration=2478.979592
status=Solve_Succeeded
success=true
DataType=double
version=3
OpenSimVersion=4.5
endheader
time	/jointset/ground_pelvis/pelvis_tilt/value	/jointset/ground_pelvis/pelvis_tx/value	/jointset/ground_pelvis/pelvis_ty/value	/jointset/hip_l/hip_flexion_l/value	/jointset/hip_l/hip_adduction_l/value	/jointset/hip_l/hip_rotation_l/value	/jointset/back/lumbar_extension/value	/jointset/patellofemoral_l/patellar_flexion_l/value	/jointset/knee_l/knee_flexion_l/value	/jointset/knee_l/knee_adduction_l/value	/jointset/knee_l/knee_rotation_l/value	/jointset/ankle_l/ankle_angle_l/value	/jointset/subtalar_l/subtalar_angle_l/value	/jointset/ground_pelvis/pelvis_tilt/speed	/jointset/ground_pelvis/pelvis_tx/speed	/jointset/ground_pelvis/pelvis_ty/speed	/jointset/hip_l/hip_flexion_l/speed	/jointset/hip_l/hip_adduction_l/speed	/jointset/hip_l/hip_rotation_l/speed	/jointset/back/lumbar_extension/speed	/jointset/patellofemoral_l/patellar_flexion_l/speed	/jointset/knee_l/knee_flexion_l/speed	/jointset/knee_l/knee_adduction_l/speed	/jointset/knee_l/knee_rotation_l/speed	/jointset/ankle_l/ankle_angle_l/speed	/jointset/subtalar_l/subtalar_angle_l/speed	/forceset/tau_hip_flexion_l	/forceset/tau_hip_adduction_l	/forceset/tau_hip_rotation_l	/forceset/tau_knee_flexion_l	/forceset/tau_ankle_angle_l	/forceset/tau_subtalar_angle_l	/forceset/tau_lumbar_extension	lambda_cid13_p0	lambda_cid13_p1	lambda_cid13_p2	lambda_cid13_p3	lambda_cid13_p4	lambda_cid13_p5	lambda_cid14_p0	/jointset/ground_pelvis/pelvis_tilt/accel	/jointset/ground_pelvis/pelvis_tx/accel	/jointset/ground_pelvis/pelvis_ty/accel	/jointset/hip_l/hip_flexion_l/accel	/jointset/hip_l/hip_adduction_l/accel	/jointset/hip_l/hip_rotation_l/accel	/jointset/back/lumbar_extension/accel	/jointset/patellofemoral_l/patellar_flexion_l/accel	/jointset/knee_l/knee_flexion_l/accel	/jointset/knee_l/knee_adduction_l/accel	/jointset/knee_l/knee_rotation_l/accel	/jointset/ankle_l/ankle_angle_l/accel	/jointset/subtalar_l/subtalar_angle_l/accel	gamma_cid13_p0	gamma_cid13_p1	gamma_cid13_p2	gamma_cid13_p3	gamma_cid13_p4	gamma_cid13_p5	gamma_cid14_p0
1.5	-0.09880358689376074	0.1038484506745947	0.8376632330969821	0.5007105413249621	-0.4341317700255239	-0.3114703724931927	-0.1864788147859033	0.6022605743770565	0.6022605743770888	-0.1740748607164884	-0.1513600586318522	0.2318912906352666	0.0456987648378465	-0.02985548812881299	0.003801273478009825	0.2280596171666283	-0.8162843711078983	0.2624061975233397	-0.5185066740777936	0.3503319313541678	-1.473875779333436	-1.473875779333371	-0.004717304712727412	0.106735930005194	-0.705148993179146	-0.1039100992334336	-0.03731099677864826	0.03493163516071737	-0.008408230847460002	-0.2112840981350148	-0.03782599670363552	0.01552520155170393	0.07300565945037182	-45.54660386024674	-3.512264673647549	5.643450961491907	4.246533844397213	-534.1650261295102	-68.19217911245295	-34.27934406574963	-0.01758641681132371	0.07009895503099457	-0.2537379259072655	-0.3438076436374802	0.4240337351444997	-0.06310023645603915	0.637827464336203	-0.9755907637916551	-0.9755907637916102	0.02604790021650024	0.1470204266015336	-0.4389710669496352	0.2962067975258304	-2.742102158695247e-08	5.428392481251102e-07	1.528619346930315e-07	1.347972429125521e-07	-8.166623058868279e-08	1.597113543835225e-07	1.983338911077727e-08
1.51	-0.09910321005582665	0.1038899698540583	0.8399306159874487	0.4925320549502648	-0.431486916800343	-0.3166587516589697	-0.182943802693424	0.5874754024582537	0.5874754024582732	-0.1741205005275239	-0.1502865486763109	0.2248188726784495	0.04467449375985925	-0.03005956481105141	0.004502529986600037	0.2253716416319148	-0.8192942410932103	0.266535130791729	-0.5190951007884311	0.3566179029487157	-1.482947551487698	-1.482947551487602	-0.004410232786949258	0.1079444538891592	-0.7092333490797271	-0.1009283670917374	-0.03571513125275523	0.03312880759191143	-0.008370090796751347	-0.2086808725479686	-0.03497503782462266	0.01520050213060317	0.07135264694300304	-44.57461526920054	-3.563177241877924	5.676401542286563	3.863273481541228	-532.64755463679	-68.28964227014005	-34.83561172261629	-0.02039964817335969	0.07016128912897986	-0.2831386286269847	-0.2617982168039824	0.4028533393285783	-0.04558025889836628	0.6160943780680106	-0.8413181349554573	-0.8413181349510105	0.03319361108167851	0.1045438204393239	-0.3779651653039349	0.3014183770789009	-2.11999863701216e-08	5.589353340315194e-07	1.151061453135842e-07	1.354411441509844e-07	-7.187812936043364e-08	1.862848315626333e-07	2.533763184911291e-08
1.52	-0.0994045902555637	0.1039385060566789	0.8421697568702936	0.4843270255675488	-0.4288016681991498	-0.3218507883659592	-0.1793475084107885	0.5726058432791656	0.5726058432791726	-0.1741630382648354	-0.1492015983917023	0.2177086516998882	0.04368049239420642	-0.03020689566301977	0.00520467810942715	0.2224112156422567	-0.8215929727115595	0.2704852727258158	-0.5192381823202991	0.3625883693854212	-1.490753231390442	-1.490753231390317	-0.00409688996824305	0.1090239958189367	-0.7127095975279714	-0.09785615676654583	-0.03411926572686497	0.03132598002310491	-0.008331950746035847	-0.2060776469609241	-0.03212407894561018	0.01487580270950132	0.06969963443563228	-43.61025131401501	-3.611884906430454	5.708007274275949	3.482561664257316	-531.2533657873798	-68.4096513797144	-35.37392858522561	-0.006237250757313266	0.0702772778783748	-0.3082280168961729	-0.201579970244957	0.3882754682839895	0.02596879929787035	0.5747264327677108	-0.7223723134883296	-0.7223723134883531	0.02730207880211073	0.1212240357639769	-0.3173495764822523	0.314302434224893	-2.144998330221093e-08	5.744945466142444e-07	1.055383790549264e-07	1.379605639677567e-07	-7.059825106637741e-08	1.946881921138949e-07	2.731274106172023e-08
1.53	-0.09970718864047325	0.1039940511752269	0.8443779600396142	0.4761026442913963	-0.4260778498186532	-0.3270420832506636	-0.1756931001712587	0.5576646662097662	0.5576646662097619	-0.1742024002585733	-0.1481065663311124	0.2105667427452499	0.04271764055646615	-0.03030210597238794	0.005902702167561086	0.2191875795865349	-0.8231628992831307	0.2742439463487814	-0.5189428299693774	0.3682348927263831	-1.497263886917448	-1.497263886917478	-0.00377961123601469	0.1099624530967609	-0.7155687075553224	-0.09470363144702561	-0.0324882623027276	0.02945092312065563	-0.008311251755473092	-0.2034320857279625	-0.02926388154380507	0.01454538825979198	0.06801712704978717	-42.6419094191379	-3.657630970612443	5.737797176959388	3.11016830605532	-529.8321437693944	-68.54167390593949	-35.89147000856099	-0.009582827917477995	0.0693474325551028	-0.3357236977641307	-0.1166657414891882	0.3644119631420075	0.04303448025735727	0.5508574156388077	-0.5826727541255158	-0.5826727541487842	0.0334272136085761	0.07718369966218133	-0.2546541877314208	0.3172046455330922	-2.857545189252791e-08	5.894833312905552e-07	1.259203873621072e-07	1.42472722274015e-07	-7.835835963990104e-08	1.837858037480672e-07	2.553814590324127e-08
